<svg version="1.1" id="Layer_1" xmlns="http://www.w3.org/2000/svg" xmlns:xlink="http://www.w3.org/1999/xlink" x="0px" y="0px"
	 width="100%" viewBox="0 0 500 164" enable-background="new 0 0 500 164" xml:space="preserve">
<path fill="#262626" opacity="1.000000" stroke="none" 
	d="
M323.000000,165.000000 
	C215.333374,165.000000 108.166740,165.000000 1.000086,165.000000 
	C1.000057,110.333389 1.000057,55.666782 1.000029,1.000130 
	C167.666550,1.000087 334.333099,1.000087 500.999725,1.000043 
	C500.999817,55.666531 500.999817,110.333061 500.999908,164.999786 
	C441.833344,165.000000 382.666656,165.000000 323.000000,165.000000 
M486.219818,44.467651 
	C481.653900,35.388626 474.055908,30.680597 464.203094,29.326658 
	C444.578979,26.629984 428.589691,42.746773 432.509338,61.227612 
	C435.874023,77.091858 452.292389,86.245209 468.930695,81.532776 
	C484.853180,77.023087 492.320953,61.648869 486.219818,44.467651 
M283.261932,99.823524 
	C275.980438,110.546310 276.248993,123.486320 283.942902,132.635147 
	C292.070435,142.299561 306.413147,145.438736 318.506561,140.200089 
	C328.974487,135.665573 335.394318,125.488937 334.735565,114.474075 
	C334.052216,103.047516 326.608124,93.432762 315.473022,90.460945 
	C303.298706,87.211784 292.407684,89.483902 283.261932,99.823524 
M402.264252,91.580704 
	C389.511383,97.830414 384.028870,108.862053 387.005371,122.283920 
	C389.634857,134.140762 400.983887,142.604950 414.386444,142.704880 
	C428.850372,142.812714 440.698395,133.207474 442.738464,119.719788 
	C444.708374,106.695877 436.855164,94.395554 423.999420,90.501297 
	C416.923309,88.357788 409.889740,88.704575 402.264252,91.580704 
M421.030060,75.445427 
	C418.842651,71.956223 416.655243,68.467018 414.410614,64.886543 
	C423.056976,59.331223 425.082642,51.572433 422.974152,42.500233 
	C421.251709,35.089077 415.723938,30.943960 408.736450,30.376356 
	C398.850372,29.573292 388.850311,30.172777 378.677307,30.172777 
	C378.677307,47.333313 378.677307,64.551834 378.677307,81.651024 
	C383.238007,81.651024 387.476105,81.651024 392.138397,81.651024 
	C392.138397,76.716515 392.138397,72.133339 392.138397,67.616066 
	C401.888519,66.706612 401.887329,66.707237 406.174652,74.825584 
	C407.106171,76.589516 407.967651,78.398537 409.024414,80.084610 
	C409.501526,80.845871 410.359283,81.870796 411.076752,81.897263 
	C415.573669,82.063133 420.079712,81.981102 425.163849,81.981102 
	C423.546387,79.426918 422.481262,77.744972 421.030060,75.445427 
M116.838921,74.709038 
	C118.152626,79.427017 119.466324,84.144997 121.011497,89.694267 
	C130.238586,80.380241 138.862366,71.824303 147.230942,63.025642 
	C148.199478,62.007320 148.405884,59.392467 147.854507,57.939484 
	C143.823959,47.318604 137.239502,38.384026 128.711548,30.953226 
	C120.765480,24.029465 111.667862,19.249754 100.596634,16.692352 
	C106.068405,36.279491 111.328194,55.107830 116.838921,74.709038 
M136.662872,127.272209 
	C151.647781,109.067757 155.426132,88.433075 150.717896,66.362236 
	C133.158005,83.786980 115.681061,101.129402 98.097633,118.577484 
	C109.896896,121.900665 121.976189,125.323097 134.081818,128.649658 
	C134.663300,128.809464 135.477127,128.123718 136.662872,127.272209 
M68.530945,51.020828 
	C69.303406,50.105850 70.075867,49.190876 71.142601,47.927334 
	C61.436676,45.320599 52.303463,42.882210 43.178528,40.413239 
	C32.186497,37.439075 32.093010,37.368534 26.070290,47.174091 
	C15.814873,63.870880 13.574075,81.772163 18.120295,101.154900 
	C35.026672,84.341515 51.527710,67.931244 68.530945,51.020828 
M121.772636,140.327499 
	C125.244621,137.611633 128.716614,134.895752 132.954742,131.580582 
	C108.114708,124.743904 84.438362,118.227509 60.157925,111.544846 
	C63.298931,123.651726 66.370316,134.689636 68.942665,145.842621 
	C69.834503,149.709366 71.788467,150.773849 75.354279,151.036377 
	C91.694160,152.239380 107.170982,149.818436 121.772636,140.327499 
M23.510708,114.894905 
	C33.669918,132.752380 52.823078,147.800110 66.353096,148.308319 
	C60.135574,124.620117 53.942505,101.025070 47.565598,76.729622 
	C39.941505,84.367218 32.907684,91.417450 25.869339,98.463150 
	C19.005806,105.333878 19.003782,105.331856 23.510708,114.894905 
M36.633785,34.049461 
	C37.676903,34.729946 38.632652,35.727306 39.776440,36.042648 
	C53.542210,39.837860 67.337601,43.525509 81.121483,47.255203 
	C89.691010,49.573982 98.254089,51.916561 107.660210,54.477169 
	C104.259712,42.204659 100.982872,30.931278 98.083107,19.561724 
	C97.259186,16.331259 95.597862,15.371253 92.607422,15.123883 
	C71.476936,13.375967 52.790424,18.888498 36.633785,34.049461 
M252.123093,50.423626 
	C244.678452,50.423626 237.233810,50.423626 229.693634,50.423626 
	C229.693634,46.673679 229.693634,43.482269 229.693634,39.871117 
	C238.999176,39.871117 247.903381,39.871117 256.620789,39.871117 
	C256.620789,36.218075 256.620789,33.002251 256.620789,29.841900 
	C242.978470,29.841900 229.711823,29.841900 216.221130,29.841900 
	C216.221130,47.237968 216.221130,64.443481 216.221130,81.710876 
	C230.173111,81.710876 243.882065,81.710876 257.539795,81.710876 
	C257.539795,78.197762 257.539795,74.988663 257.539795,71.195862 
	C247.989899,71.195862 238.780487,71.195862 229.572021,71.195862 
	C229.572021,67.503983 229.572021,64.423378 229.572021,60.883789 
	C237.923447,60.883789 246.001160,60.883789 254.839417,60.883789 
	C254.179230,57.039757 253.617264,53.767700 252.123093,50.423626 
M279.859283,44.325169 
	C274.499878,56.736565 269.140503,69.147964 263.717834,81.705879 
	C272.111816,82.456528 280.338501,84.084389 280.812866,72.377724 
	C288.110107,72.377724 294.769348,72.248627 301.414703,72.494965 
	C302.632080,72.540092 304.674866,73.972855 304.836945,75.001404 
	C305.902649,81.764374 310.241028,82.774452 315.939911,82.040215 
	C317.725342,81.810181 319.565430,82.004364 321.756134,82.004364 
	C321.268555,80.600594 320.957428,79.513161 320.521423,78.478348 
	C314.455444,64.081375 308.137024,49.783932 302.432953,35.245335 
	C300.658417,30.722393 298.305084,29.715965 293.747742,29.437098 
	C287.747681,29.069946 284.519012,31.053699 283.008148,36.721264 
	C282.372955,39.103905 281.087738,41.313255 279.859283,44.325169 
M217.472061,136.007919 
	C212.186920,123.446777 206.906647,110.883583 201.614990,98.325188 
	C197.933304,89.587685 197.921829,89.777214 188.546875,89.552658 
	C185.134659,89.470924 183.573456,90.623337 182.294708,93.670586 
	C176.056854,108.535400 169.588104,123.303253 163.223724,138.115173 
	C162.727661,139.269669 162.406021,140.499115 161.898590,142.004349 
	C164.347809,142.004349 166.393677,141.712738 168.324478,142.060303 
	C173.624817,143.014450 176.829773,141.139069 177.863785,135.761169 
	C178.392441,133.011719 180.037170,132.149155 182.852631,132.306107 
	C187.503876,132.565430 192.212769,132.716827 196.836121,132.274094 
	C200.947540,131.880386 202.846771,133.422241 203.981888,137.194000 
	C204.517242,138.972885 206.018143,141.560547 207.397034,141.777634 
	C211.346924,142.399445 215.458099,141.996582 219.908356,141.996582 
	C219.024170,139.747345 218.422958,138.217972 217.472061,136.007919 
M267.653076,95.936432 
	C264.218903,94.033997 260.891815,90.771080 257.329987,90.490814 
	C247.645401,89.728775 237.861481,90.229134 227.937210,90.229134 
	C227.937210,107.335480 227.937210,124.416267 227.937210,141.731934 
	C232.309280,141.731934 236.526291,141.731934 241.129837,141.731934 
	C241.129837,136.883804 241.129837,132.290894 241.129837,127.178307 
	C245.122528,127.178307 248.752243,127.318962 252.368042,127.154274 
	C269.218597,126.386795 277.177368,110.855095 267.653076,95.936432 
M199.359680,40.360443 
	C201.833649,40.360443 204.307632,40.360443 206.898590,40.360443 
	C206.898590,36.594818 206.898590,33.218826 206.898590,29.809248 
	C191.993698,29.809248 177.436035,29.809248 162.659271,29.809248 
	C162.659271,33.352802 162.659271,36.596077 162.659271,40.290268 
	C167.791580,40.290268 172.711105,40.290268 178.179504,40.290268 
	C178.179504,54.432854 178.179504,68.135986 178.179504,81.814880 
	C182.855576,81.814880 186.968842,81.814880 191.746002,81.814880 
	C191.746002,67.946381 191.746002,54.256866 191.746002,40.360397 
	C194.400467,40.360397 196.389923,40.360397 199.359680,40.360443 
M353.988708,45.681702 
	C353.988708,44.059219 353.988708,42.436737 353.988708,40.211376 
	C359.473175,40.211376 364.528992,40.211376 369.541626,40.211376 
	C369.541626,36.352947 369.541626,33.113846 369.541626,29.755527 
	C354.624420,29.755527 340.029877,29.755527 325.327515,29.755527 
	C325.327515,33.377419 325.327515,36.776459 325.327515,40.655876 
	C330.558746,40.655876 335.473724,40.655876 340.868103,40.655876 
	C340.868103,54.683537 340.868103,68.233841 340.868103,81.752808 
	C345.467438,81.752808 349.558136,81.752808 353.988708,81.752808 
	C353.988708,69.888107 353.988708,58.264572 353.988708,45.681702 
M344.761993,103.503250 
	C344.761993,116.250053 344.761993,128.996857 344.761993,141.652802 
	C356.973724,141.652802 368.539001,141.652802 379.865723,141.652802 
	C379.865723,137.891922 379.865723,134.482956 379.865723,130.660645 
	C372.431244,130.660645 365.348541,130.660645 357.887695,130.660645 
	C357.887695,116.796707 357.887695,103.364838 357.887695,89.905792 
	C353.395813,89.905792 349.305878,89.905792 344.761993,89.905792 
	C344.761993,94.256180 344.761993,98.379959 344.761993,103.503250 
z"/>
<path fill="#FAFAFA" opacity="1.000000" stroke="none" 
	d="
M486.415771,44.799942 
	C492.320953,61.648869 484.853180,77.023087 468.930695,81.532776 
	C452.292389,86.245209 435.874023,77.091858 432.509338,61.227612 
	C428.589691,42.746773 444.578979,26.629984 464.203094,29.326658 
	C474.055908,30.680597 481.653900,35.388626 486.415771,44.799942 
M445.840851,54.694145 
	C446.004883,63.722958 450.690765,70.058678 457.984741,71.113777 
	C466.368225,72.326492 473.303192,67.097794 474.763580,58.463158 
	C476.165314,50.175331 470.929047,42.186756 463.145844,40.738804 
	C454.571838,39.143738 447.646942,44.400993 445.840851,54.694145 
z"/>
<path fill="#FAFAFA" opacity="1.000000" stroke="none" 
	d="
M283.498199,99.551834 
	C292.407684,89.483902 303.298706,87.211784 315.473022,90.460945 
	C326.608124,93.432762 334.052216,103.047516 334.735565,114.474075 
	C335.394318,125.488937 328.974487,135.665573 318.506561,140.200089 
	C306.413147,145.438736 292.070435,142.299561 283.942902,132.635147 
	C276.248993,123.486320 275.980438,110.546310 283.498199,99.551834 
M320.106140,110.719154 
	C316.508118,102.261932 309.789459,98.685020 301.986664,101.072662 
	C294.623413,103.325806 290.200775,111.820129 292.159943,119.946312 
	C293.953033,127.383575 300.925751,132.121216 308.640594,131.144089 
	C317.148804,130.066467 322.264954,121.452568 320.106140,110.719154 
z"/>
<path fill="#FAFAFA" opacity="1.000000" stroke="none" 
	d="
M402.607727,91.399857 
	C409.889740,88.704575 416.923309,88.357788 423.999420,90.501297 
	C436.855164,94.395554 444.708374,106.695877 442.738464,119.719788 
	C440.698395,133.207474 428.850372,142.812714 414.386444,142.704880 
	C400.983887,142.604950 389.634857,134.140762 387.005371,122.283920 
	C384.028870,108.862053 389.511383,97.830414 402.607727,91.399857 
M405.598480,128.058350 
	C411.712067,132.116684 417.769531,132.400970 422.690216,128.860474 
	C427.939331,125.083687 430.374756,118.061081 428.680939,111.586098 
	C427.089355,105.501823 422.111816,101.128647 416.059540,100.497238 
	C410.203644,99.886314 404.551910,103.011971 401.731079,108.421509 
	C398.434937,114.742554 399.590729,121.468460 405.598480,128.058350 
z"/>
<path fill="#F9F9F9" opacity="1.000000" stroke="none" 
	d="
M421.223114,75.754227 
	C422.481262,77.744972 423.546387,79.426918 425.163849,81.981102 
	C420.079712,81.981102 415.573669,82.063133 411.076752,81.897263 
	C410.359283,81.870796 409.501526,80.845871 409.024414,80.084610 
	C407.967651,78.398537 407.106171,76.589516 406.174652,74.825584 
	C401.887329,66.707237 401.888519,66.706612 392.138397,67.616066 
	C392.138397,72.133339 392.138397,76.716515 392.138397,81.651024 
	C387.476105,81.651024 383.238007,81.651024 378.677307,81.651024 
	C378.677307,64.551834 378.677307,47.333313 378.677307,30.172777 
	C388.850311,30.172777 398.850372,29.573292 408.736450,30.376356 
	C415.723938,30.943960 421.251709,35.089077 422.974152,42.500233 
	C425.082642,51.572433 423.056976,59.331223 414.410614,64.886543 
	C416.655243,68.467018 418.842651,71.956223 421.223114,75.754227 
M410.710236,50.844227 
	C411.468628,41.173473 405.620972,37.976810 392.149628,40.722717 
	C392.149628,45.939579 392.149628,51.160122 392.149628,56.714130 
	C395.992493,56.714130 399.754852,57.364719 403.134308,56.506912 
	C405.805786,55.828812 408.006866,53.297478 410.710236,50.844227 
z"/>
<path fill="#FCFCFC" opacity="1.000000" stroke="none" 
	d="
M116.713455,74.322601 
	C111.328194,55.107830 106.068405,36.279491 100.596634,16.692352 
	C111.667862,19.249754 120.765480,24.029465 128.711548,30.953226 
	C137.239502,38.384026 143.823959,47.318604 147.854507,57.939484 
	C148.405884,59.392467 148.199478,62.007320 147.230942,63.025642 
	C138.862366,71.824303 130.238586,80.380241 121.011497,89.694267 
	C119.466324,84.144997 118.152626,79.427017 116.713455,74.322601 
z"/>
<path fill="#FDFDFD" opacity="1.000000" stroke="none" 
	d="
M136.422821,127.551971 
	C135.477127,128.123718 134.663300,128.809464 134.081818,128.649658 
	C121.976189,125.323097 109.896896,121.900665 98.097633,118.577484 
	C115.681061,101.129402 133.158005,83.786980 150.717896,66.362236 
	C155.426132,88.433075 151.647781,109.067757 136.422821,127.551971 
z"/>
<path fill="#FDFDFD" opacity="1.000000" stroke="none" 
	d="
M68.279846,51.270901 
	C51.527710,67.931244 35.026672,84.341515 18.120295,101.154900 
	C13.574075,81.772163 15.814873,63.870880 26.070290,47.174091 
	C32.093010,37.368534 32.186497,37.439075 43.178528,40.413239 
	C52.303463,42.882210 61.436676,45.320599 71.142601,47.927334 
	C70.075867,49.190876 69.303406,50.105850 68.279846,51.270901 
z"/>
<path fill="#FCFCFC" opacity="1.000000" stroke="none" 
	d="
M121.481316,140.547791 
	C107.170982,149.818436 91.694160,152.239380 75.354279,151.036377 
	C71.788467,150.773849 69.834503,149.709366 68.942665,145.842621 
	C66.370316,134.689636 63.298931,123.651726 60.157925,111.544846 
	C84.438362,118.227509 108.114708,124.743904 132.954742,131.580582 
	C128.716614,134.895752 125.244621,137.611633 121.481316,140.547791 
z"/>
<path fill="#FCFCFC" opacity="1.000000" stroke="none" 
	d="
M23.325588,114.568764 
	C19.003782,105.331856 19.005806,105.333878 25.869339,98.463150 
	C32.907684,91.417450 39.941505,84.367218 47.565598,76.729622 
	C53.942505,101.025070 60.135574,124.620117 66.353096,148.308319 
	C52.823078,147.800110 33.669918,132.752380 23.325588,114.568764 
z"/>
<path fill="#FCFCFC" opacity="1.000000" stroke="none" 
	d="
M36.874546,33.791405 
	C52.790424,18.888498 71.476936,13.375967 92.607422,15.123883 
	C95.597862,15.371253 97.259186,16.331259 98.083107,19.561724 
	C100.982872,30.931278 104.259712,42.204659 107.660210,54.477169 
	C98.254089,51.916561 89.691010,49.573982 81.121483,47.255203 
	C67.337601,43.525509 53.542210,39.837860 39.776440,36.042648 
	C38.632652,35.727306 37.676903,34.729946 36.874546,33.791405 
z"/>
<path fill="#FBFBFB" opacity="1.000000" stroke="none" 
	d="
M252.589203,50.459637 
	C253.617264,53.767700 254.179230,57.039757 254.839417,60.883789 
	C246.001160,60.883789 237.923447,60.883789 229.572021,60.883789 
	C229.572021,64.423378 229.572021,67.503983 229.572021,71.195862 
	C238.780487,71.195862 247.989899,71.195862 257.539795,71.195862 
	C257.539795,74.988663 257.539795,78.197762 257.539795,81.710876 
	C243.882065,81.710876 230.173111,81.710876 216.221130,81.710876 
	C216.221130,64.443481 216.221130,47.237968 216.221130,29.841900 
	C229.711823,29.841900 242.978470,29.841900 256.620789,29.841900 
	C256.620789,33.002251 256.620789,36.218075 256.620789,39.871117 
	C247.903381,39.871117 238.999176,39.871117 229.693634,39.871117 
	C229.693634,43.482269 229.693634,46.673679 229.693634,50.423626 
	C237.233810,50.423626 244.678452,50.423626 252.589203,50.459637 
z"/>
<path fill="#FBFBFB" opacity="1.000000" stroke="none" 
	d="
M279.978668,43.963272 
	C281.087738,41.313255 282.372955,39.103905 283.008148,36.721264 
	C284.519012,31.053699 287.747681,29.069946 293.747742,29.437098 
	C298.305084,29.715965 300.658417,30.722393 302.432953,35.245335 
	C308.137024,49.783932 314.455444,64.081375 320.521423,78.478348 
	C320.957428,79.513161 321.268555,80.600594 321.756134,82.004364 
	C319.565430,82.004364 317.725342,81.810181 315.939911,82.040215 
	C310.241028,82.774452 305.902649,81.764374 304.836945,75.001404 
	C304.674866,73.972855 302.632080,72.540092 301.414703,72.494965 
	C294.769348,72.248627 288.110107,72.377724 280.812866,72.377724 
	C280.338501,84.084389 272.111816,82.456528 263.717834,81.705879 
	C269.140503,69.147964 274.499878,56.736565 279.978668,43.963272 
M299.265320,60.289749 
	C297.156616,54.845936 295.047913,49.402122 292.583893,43.041077 
	C289.905487,49.961422 287.650177,55.788574 284.973938,62.703281 
	C290.514465,62.071503 295.050354,61.554276 299.265320,60.289749 
z"/>
<path fill="#FBFBFB" opacity="1.000000" stroke="none" 
	d="
M217.646912,136.348267 
	C218.422958,138.217972 219.024170,139.747345 219.908356,141.996582 
	C215.458099,141.996582 211.346924,142.399445 207.397034,141.777634 
	C206.018143,141.560547 204.517242,138.972885 203.981888,137.194000 
	C202.846771,133.422241 200.947540,131.880386 196.836121,132.274094 
	C192.212769,132.716827 187.503876,132.565430 182.852631,132.306107 
	C180.037170,132.149155 178.392441,133.011719 177.863785,135.761169 
	C176.829773,141.139069 173.624817,143.014450 168.324478,142.060303 
	C166.393677,141.712738 164.347809,142.004349 161.898590,142.004349 
	C162.406021,140.499115 162.727661,139.269669 163.223724,138.115173 
	C169.588104,123.303253 176.056854,108.535400 182.294708,93.670586 
	C183.573456,90.623337 185.134659,89.470924 188.546875,89.552658 
	C197.921829,89.777214 197.933304,89.587685 201.614990,98.325188 
	C206.906647,110.883583 212.186920,123.446777 217.646912,136.348267 
M196.433792,118.053505 
	C194.604614,113.338539 192.775421,108.623581 190.605560,103.030502 
	C187.939606,109.880623 185.671509,115.708450 183.270309,121.878265 
	C188.430969,121.878265 192.965179,121.878265 197.773224,121.878265 
	C197.381104,120.637146 197.085251,119.700691 196.433792,118.053505 
z"/>
<path fill="#FEFEFE" opacity="1.000000" stroke="none" 
	d="
M267.881866,96.229919 
	C277.177368,110.855095 269.218597,126.386795 252.368042,127.154274 
	C248.752243,127.318962 245.122528,127.178307 241.129837,127.178307 
	C241.129837,132.290894 241.129837,136.883804 241.129837,141.731934 
	C236.526291,141.731934 232.309280,141.731934 227.937210,141.731934 
	C227.937210,124.416267 227.937210,107.335480 227.937210,90.229134 
	C237.861481,90.229134 247.645401,89.728775 257.329987,90.490814 
	C260.891815,90.771080 264.218903,94.033997 267.881866,96.229919 
M256.858307,114.332787 
	C259.680450,110.774757 260.243744,106.650429 257.378296,103.309204 
	C252.939499,98.133392 246.768707,100.546371 241.381561,100.147171 
	C241.381561,106.119102 241.381561,111.365898 241.381561,117.737350 
	C246.702850,116.712334 251.488983,115.790398 256.858307,114.332787 
z"/>
<path fill="#F9F9F9" opacity="1.000000" stroke="none" 
	d="
M198.869537,40.360420 
	C196.389923,40.360397 194.400467,40.360397 191.746002,40.360397 
	C191.746002,54.256866 191.746002,67.946381 191.746002,81.814880 
	C186.968842,81.814880 182.855576,81.814880 178.179504,81.814880 
	C178.179504,68.135986 178.179504,54.432854 178.179504,40.290268 
	C172.711105,40.290268 167.791580,40.290268 162.659271,40.290268 
	C162.659271,36.596077 162.659271,33.352802 162.659271,29.809248 
	C177.436035,29.809248 191.993698,29.809248 206.898590,29.809248 
	C206.898590,33.218826 206.898590,36.594818 206.898590,40.360443 
	C204.307632,40.360443 201.833649,40.360443 198.869537,40.360420 
z"/>
<path fill="#FEFEFE" opacity="1.000000" stroke="none" 
	d="
M353.988708,46.161369 
	C353.988708,58.264572 353.988708,69.888107 353.988708,81.752808 
	C349.558136,81.752808 345.467438,81.752808 340.868103,81.752808 
	C340.868103,68.233841 340.868103,54.683537 340.868103,40.655876 
	C335.473724,40.655876 330.558746,40.655876 325.327515,40.655876 
	C325.327515,36.776459 325.327515,33.377419 325.327515,29.755527 
	C340.029877,29.755527 354.624420,29.755527 369.541626,29.755527 
	C369.541626,33.113846 369.541626,36.352947 369.541626,40.211376 
	C364.528992,40.211376 359.473175,40.211376 353.988708,40.211376 
	C353.988708,42.436737 353.988708,44.059219 353.988708,46.161369 
z"/>
<path fill="#FFFFFF" opacity="1.000000" stroke="none" 
	d="
M344.761993,103.003494 
	C344.761993,98.379959 344.761993,94.256180 344.761993,89.905792 
	C349.305878,89.905792 353.395813,89.905792 357.887695,89.905792 
	C357.887695,103.364838 357.887695,116.796707 357.887695,130.660645 
	C365.348541,130.660645 372.431244,130.660645 379.865723,130.660645 
	C379.865723,134.482956 379.865723,137.891922 379.865723,141.652802 
	C368.539001,141.652802 356.973724,141.652802 344.761993,141.652802 
	C344.761993,128.996857 344.761993,116.250053 344.761993,103.003494 
z"/>
<path fill="#272727" opacity="1.000000" stroke="none" 
	d="
M445.867157,54.265320 
	C447.646942,44.400993 454.571838,39.143738 463.145844,40.738804 
	C470.929047,42.186756 476.165314,50.175331 474.763580,58.463158 
	C473.303192,67.097794 466.368225,72.326492 457.984741,71.113777 
	C450.690765,70.058678 446.004883,63.722958 445.867157,54.265320 
z"/>
<path fill="#272727" opacity="1.000000" stroke="none" 
	d="
M320.206909,111.109879 
	C322.264954,121.452568 317.148804,130.066467 308.640594,131.144089 
	C300.925751,132.121216 293.953033,127.383575 292.159943,119.946312 
	C290.200775,111.820129 294.623413,103.325806 301.986664,101.072662 
	C309.789459,98.685020 316.508118,102.261932 320.206909,111.109879 
z"/>
<path fill="#272727" opacity="1.000000" stroke="none" 
	d="
M405.310669,127.817719 
	C399.590729,121.468460 398.434937,114.742554 401.731079,108.421509 
	C404.551910,103.011971 410.203644,99.886314 416.059540,100.497238 
	C422.111816,101.128647 427.089355,105.501823 428.680939,111.586098 
	C430.374756,118.061081 427.939331,125.083687 422.690216,128.860474 
	C417.769531,132.400970 411.712067,132.116684 405.310669,127.817719 
z"/>
<path fill="#2B2B2B" opacity="1.000000" stroke="none" 
	d="
M410.563538,51.216690 
	C408.006866,53.297478 405.805786,55.828812 403.134308,56.506912 
	C399.754852,57.364719 395.992493,56.714130 392.149628,56.714130 
	C392.149628,51.160122 392.149628,45.939579 392.149628,40.722717 
	C405.620972,37.976810 411.468628,41.173473 410.563538,51.216690 
z"/>
<path fill="#2B2B2B" opacity="1.000000" stroke="none" 
	d="
M299.425781,60.663399 
	C295.050354,61.554276 290.514465,62.071503 284.973938,62.703281 
	C287.650177,55.788574 289.905487,49.961422 292.583893,43.041077 
	C295.047913,49.402122 297.156616,54.845936 299.425781,60.663399 
z"/>
<path fill="#2B2B2B" opacity="1.000000" stroke="none" 
	d="
M196.611588,118.408875 
	C197.085251,119.700691 197.381104,120.637146 197.773224,121.878265 
	C192.965179,121.878265 188.430969,121.878265 183.270309,121.878265 
	C185.671509,115.708450 187.939606,109.880623 190.605560,103.030502 
	C192.775421,108.623581 194.604614,113.338539 196.611588,118.408875 
z"/>
<path fill="#2B2B2B" opacity="1.000000" stroke="none" 
	d="
M256.566711,114.600624 
	C251.488983,115.790398 246.702850,116.712334 241.381561,117.737350 
	C241.381561,111.365898 241.381561,106.119102 241.381561,100.147171 
	C246.768707,100.546371 252.939499,98.133392 257.378296,103.309204 
	C260.243744,106.650429 259.680450,110.774757 256.566711,114.600624 
z"/>
</svg>